<?xml version="1.0" encoding="UTF-8"?>
<svg width="155px" height="153px" viewBox="0 0 155 153" version="1.1" xmlns="http://www.w3.org/2000/svg" xmlns:xlink="http://www.w3.org/1999/xlink">
    <!-- Generator: Sketch 59.1 (86144) - https://sketch.com -->
    <title>Star</title>
    <desc>Created with Sketch.</desc>
    <g id="Page-1" stroke="none" stroke-width="1" fill="none" fill-rule="evenodd">
        <g id="Lose-Screen" transform="translate(-131.000000, -100.000000)" fill="#FFFFFF">
            <polygon id="Star" points="208.5 238.850667 195.042266 252.822601 187.174816 235.090462 169.75 243.616969 168.421764 224.263382 149.131556 226.31604 154.502738 207.675334 135.673822 203.006561 147.096579 187.32708 131 176.5 147.096579 165.67292 135.673822 149.993439 154.502738 145.324666 149.131556 126.68396 168.421764 128.736618 169.75 109.383031 187.174816 117.909538 195.042266 100.177399 208.5 114.149333 221.957734 100.177399 229.825184 117.909538 247.25 109.383031 248.578236 128.736618 267.868444 126.68396 262.497262 145.324666 281.326178 149.993439 269.903421 165.67292 286 176.5 269.903421 187.32708 281.326178 203.006561 262.497262 207.675334 267.868444 226.31604 248.578236 224.263382 247.25 243.616969 229.825184 235.090462 221.957734 252.822601"></polygon>
        </g>
    </g>
</svg>